<svg version="1.1" xmlns="http://www.w3.org/2000/svg" xmlns:xlink="http://www.w3.org/1999/xlink" width="25" height="22" viewBox="0 0 25 22"><path id="Dislike" d="M9.224,0.980 C9.828,0.555 10.519,0.673 11.186,0.671 C14.050,0.664 16.914,0.671 19.778,0.669 C20.346,0.669 20.889,0.770 21.399,1.028 C22.339,1.502 22.836,2.459 22.668,3.503 C22.634,3.713 22.660,3.868 22.797,4.049 C23.398,4.848 23.610,5.753 23.473,6.746 C23.459,6.844 23.496,6.974 23.556,7.055 C24.182,7.895 24.476,8.805 24.201,9.855 C24.183,9.926 24.234,10.041 24.289,10.104 C24.676,10.540 24.961,11.024 24.995,11.619 C25.063,12.823 24.077,13.847 22.827,13.854 C21.007,13.864 19.187,13.857 17.367,13.857 C17.267,13.857 17.168,13.857 17.036,13.857 C17.129,14.265 17.226,14.649 17.302,15.037 C17.574,16.410 17.622,17.779 17.125,19.116 C16.688,20.292 15.985,21.259 14.797,21.770 C13.841,22.182 12.942,22.060 12.130,21.382 C11.867,21.163 11.717,20.885 11.727,20.555 C11.743,20.006 11.795,19.457 11.842,18.909 C11.877,18.485 11.936,18.063 11.966,17.638 C11.995,17.225 11.882,16.834 11.658,16.494 C10.792,15.185 9.911,13.885 9.037,12.581 C8.903,12.382 8.746,12.291 8.483,12.292 C6.229,12.309 3.974,12.304 1.720,12.308 C0.826,12.309 0.026,11.550 0.020,10.649 C0.003,7.855 -0.001,5.062 -0.007,2.269 C-0.008,1.917 0.014,1.566 0.018,1.215 C0.023,0.807 0.225,0.519 0.559,0.313 C0.877,0.117 1.221,-0.001 1.599,-0.001 C3.753,-0.001 5.908,-0.004 8.062,0.001 C8.650,0.002 8.993,0.295 9.224,0.980 zM21.819,3.618 C22.045,2.854 21.758,2.146 21.093,1.776 C20.607,1.505 20.080,1.470 19.541,1.471 C17.745,1.476 15.950,1.473 14.155,1.473 C12.861,1.474 11.567,1.475 10.273,1.475 C9.879,1.475 9.541,1.645 9.307,1.929 C9.188,2.074 9.195,2.346 9.194,2.561 C9.187,5.354 9.194,8.148 9.181,10.942 C9.179,11.328 9.215,11.664 9.533,11.925 C9.628,12.003 9.699,12.113 9.768,12.217 C10.460,13.251 11.157,14.282 11.836,15.324 C12.117,15.756 12.409,16.193 12.606,16.665 C12.913,17.403 12.751,18.178 12.657,18.942 C12.595,19.447 12.553,19.954 12.529,20.462 C12.523,20.573 12.607,20.722 12.696,20.798 C13.242,21.264 13.859,21.306 14.499,21.027 C15.254,20.698 15.756,20.104 16.131,19.393 C16.580,18.542 16.709,17.626 16.692,16.674 C16.674,15.660 16.402,14.694 16.167,13.720 C16.049,13.232 16.179,13.056 16.671,13.055 C18.683,13.053 20.695,13.055 22.707,13.054 C23.326,13.054 23.820,12.815 24.089,12.239 C24.349,11.683 24.146,11.192 23.782,10.760 C23.704,10.668 23.548,10.595 23.427,10.593 C22.392,10.581 21.357,10.587 20.322,10.587 C19.904,10.587 19.487,10.588 19.069,10.584 C18.739,10.580 18.539,10.422 18.544,10.177 C18.548,9.926 18.736,9.786 19.078,9.779 C19.111,9.779 19.144,9.779 19.178,9.779 C20.489,9.779 21.799,9.773 23.110,9.785 C23.337,9.787 23.421,9.706 23.459,9.501 C23.598,8.745 23.357,8.100 22.888,7.525 C22.842,7.469 22.725,7.450 22.642,7.449 C21.932,7.444 21.222,7.447 20.512,7.447 C19.761,7.447 19.010,7.446 18.258,7.446 C18.050,7.447 17.899,7.357 17.841,7.157 C17.789,6.980 17.841,6.812 18.006,6.724 C18.111,6.669 18.244,6.645 18.365,6.645 C19.717,6.640 21.070,6.642 22.423,6.642 C22.503,6.641 22.584,6.633 22.658,6.629 C22.793,6.000 22.630,5.241 22.265,4.670 C22.151,4.491 22.025,4.414 21.802,4.416 C20.374,4.428 18.946,4.422 17.518,4.423 C17.187,4.423 16.993,4.280 16.983,4.028 C16.974,3.766 17.165,3.620 17.522,3.619 C17.823,3.618 18.123,3.618 18.424,3.618 C19.550,3.618 20.677,3.618 21.819,3.618 zM8.386,6.184 C8.386,6.184 8.386,6.184 8.387,6.184 C8.387,4.537 8.386,2.890 8.387,1.244 C8.387,0.870 8.328,0.805 7.952,0.805 C6.341,0.803 4.731,0.803 3.120,0.803 C2.603,0.803 2.082,0.765 1.569,0.814 C0.988,0.870 0.798,1.000 0.801,1.560 C0.818,4.544 0.809,7.528 0.817,10.512 C0.819,11.131 1.222,11.505 1.846,11.505 C3.924,11.502 6.002,11.493 8.079,11.503 C8.349,11.504 8.392,11.412 8.390,11.174 C8.381,9.511 8.386,7.847 8.386,6.184 z" fill="#757575" /></svg>