<?xml version="1.0" encoding="UTF-8"?>
<svg xmlns="http://www.w3.org/2000/svg" xmlns:xlink="http://www.w3.org/1999/xlink" viewBox="0 0 96 96" width="96px" height="96px">
<g id="surface75311735">
<path style=" stroke:none;fill-rule:nonzero;fill:rgb(9.803922%,52.941179%,32.941177%);fill-opacity:1;" d="M 41.960938 8 C 40.046875 8 38.40625 9.355469 38.039062 11.234375 L 36.703125 18.09375 C 33.421875 19.335938 30.382812 21.070312 27.71875 23.257812 L 21.140625 20.992188 C 19.328125 20.367188 17.335938 21.117188 16.375 22.773438 L 10.34375 33.226562 C 9.386719 34.886719 9.734375 36.992188 11.179688 38.25 L 16.453125 42.835938 C 16.179688 44.519531 16 46.238281 16 48 C 16 49.761719 16.179688 51.480469 16.453125 53.164062 L 11.179688 57.75 C 9.734375 59.007812 9.386719 61.113281 10.34375 62.773438 L 16.375 73.226562 C 17.332031 74.886719 19.328125 75.636719 21.140625 75.015625 L 27.71875 72.75 C 30.382812 74.9375 33.421875 76.664062 36.703125 77.90625 L 38.039062 84.765625 C 38.40625 86.644531 40.046875 88 41.960938 88 L 54.039062 88 C 55.953125 88 57.59375 86.644531 57.960938 84.765625 L 59.296875 77.90625 C 62.578125 76.664062 65.617188 74.929688 68.28125 72.742188 L 74.859375 75.007812 C 76.671875 75.632812 78.664062 74.886719 79.625 73.226562 L 85.65625 62.765625 C 86.613281 61.105469 86.265625 59.007812 84.820312 57.75 L 79.546875 53.164062 C 79.820312 51.480469 80 49.761719 80 48 C 80 46.238281 79.820312 44.519531 79.546875 42.835938 L 84.820312 38.25 C 86.265625 36.992188 86.613281 34.886719 85.65625 33.226562 L 79.625 22.773438 C 78.667969 21.113281 76.671875 20.363281 74.859375 20.984375 L 68.28125 23.25 C 65.617188 21.0625 62.578125 19.335938 59.296875 18.09375 L 57.960938 11.234375 C 57.59375 9.355469 55.953125 8 54.039062 8 Z M 48 32 C 56.835938 32 64 39.164062 64 48 C 64 56.835938 56.835938 64 48 64 C 39.164062 64 32 56.835938 32 48 C 32 39.164062 39.164062 32 48 32 Z M 48 32 "/>
</g>
</svg>
